<?xml version="1.0" encoding="utf-8"?>
<!-- Generator: Adobe Illustrator 18.0.0, SVG Export Plug-In . SVG Version: 6.00 Build 0)  -->
<!DOCTYPE svg PUBLIC "-//W3C//DTD SVG 1.1//EN" "http://www.w3.org/Graphics/SVG/1.1/DTD/svg11.dtd">
<svg version="1.1" id="Ebene_1" xmlns="http://www.w3.org/2000/svg" xmlns:xlink="http://www.w3.org/1999/xlink" x="0px" y="0px"
	 viewBox="0 0 58 58" enable-background="new 0 0 58 58" xml:space="preserve">
<g>
	<path fill="#222426" d="M19,34c-1,0-1.9,0.4-2.7,1.1c-0.7,0.7-1.1,1.6-1.1,2.7c0,1,0.4,1.9,1.1,2.7c0.7,0.7,1.6,1.1,2.7,1.1
		c1,0,1.9-0.4,2.7-1.1c0.7-0.7,1.1-1.6,1.1-2.7c0-1.1-0.4-2-1.1-2.7C20.9,34.4,20,34,19,34z"/>
	<path fill="#222426" d="M39,16.5c-1,0-1.9,0.4-2.7,1.1c-0.7,0.7-1.1,1.6-1.1,2.7c0,1,0.4,1.9,1.1,2.7c0.8,0.6,1.7,1,2.7,1
		s1.9-0.4,2.7-1.1c0.7-0.7,1.1-1.6,1.1-2.7c0-1-0.4-1.9-1.1-2.6C41,16.9,40.1,16.5,39,16.5z"/>
	<path fill="#222426" d="M38.9,31.5H19c-1.7,0-3.2,0.6-4.4,1.8c-1.2,1.2-1.8,2.7-1.8,4.4s0.6,3.2,1.8,4.4c1.2,1.2,2.7,1.8,4.4,1.8
		h20c1.7,0,3.2-0.6,4.4-1.8c1.2-1.2,1.8-2.7,1.8-4.4s-0.6-3.2-1.9-4.4C42.1,32.1,40.6,31.5,38.9,31.5z M22.5,41.2
		c-1,1-2.2,1.5-3.5,1.5c-1.4,0-2.5-0.5-3.5-1.5S14,39,14,37.7s0.5-2.5,1.5-3.5s2.2-1.5,3.5-1.5c1.4,0,2.5,0.5,3.5,1.5
		s1.5,2.2,1.5,3.5C24,39.1,23.5,40.2,22.5,41.2z"/>
	<path fill="#222426" d="M39,14H19.1c-1.7,0-3.2,0.6-4.5,1.8c-1.2,1.2-1.9,2.7-1.9,4.4s0.6,3.2,1.8,4.4c1.2,1.2,2.7,1.8,4.4,1.8h20
		c1.7,0,3.2-0.6,4.4-1.8c1.2-1.2,1.8-2.7,1.8-4.4s-0.6-3.2-1.8-4.4C42.2,14.6,40.7,14,39,14z M42.5,23.7c-1,1-2.2,1.5-3.5,1.5
		c-1.4,0-2.5-0.5-3.5-1.5S34,21.5,34,20.2s0.5-2.5,1.5-3.5s2.2-1.5,3.5-1.5c1.4,0,2.5,0.5,3.5,1.5s1.5,2.2,1.5,3.5
		C44,21.6,43.5,22.7,42.5,23.7z"/>
	<path fill="#222426" d="M0,0v58h58V0H0z M44.3,43c-1.5,1.5-3.2,2.2-5.3,2.2H19c-2.1,0-3.9-0.7-5.3-2.2c-1.5-1.5-2.2-3.2-2.2-5.3
		c0-2.1,0.7-3.9,2.2-5.3c1.5-1.5,3.2-2.2,5.3-2.2h20c2.1,0,3.9,0.7,5.3,2.2c1.5,1.5,2.2,3.2,2.2,5.3C46.5,39.8,45.8,41.6,44.3,43z
		 M44.3,25.5c-1.5,1.5-3.2,2.2-5.3,2.2H19c-2.1,0-3.9-0.7-5.3-2.2c-1.5-1.5-2.2-3.2-2.2-5.3c0-2.1,0.7-3.9,2.2-5.3
		c1.4-1.4,3.2-2.2,5.3-2.2h20c2.1,0,3.9,0.7,5.3,2.2c1.5,1.5,2.2,3.2,2.2,5.3C46.5,22.3,45.8,24.1,44.3,25.5z"/>
</g>
</svg>
