<?xml version="1.0" encoding="utf-8"?>
<!-- Generator: Adobe Illustrator 18.0.0, SVG Export Plug-In . SVG Version: 6.00 Build 0)  -->
<!DOCTYPE svg PUBLIC "-//W3C//DTD SVG 1.1//EN" "http://www.w3.org/Graphics/SVG/1.1/DTD/svg11.dtd">
<svg version="1.1" id="Ebene_1" xmlns="http://www.w3.org/2000/svg" xmlns:xlink="http://www.w3.org/1999/xlink" x="0px" y="0px"
	 viewBox="0 0 58 58" enable-background="new 0 0 58 58" xml:space="preserve">
<g>
	<path fill="#FFFFFF" d="M0,0v58h58V0H0z M29,41.5H16.5c0-1.7,1.4-3,4.1-4.1c0.4-0.2,1-0.3,1.9-0.4c0.8-0.1,1.3-0.2,1.5-0.3
		c0.9-0.3,1.4-0.5,1.6-0.7l0.1-3.2c-0.3-0.5-0.5-1-0.7-1.4l-0.5-2.5c-0.4,0-0.6-0.3-0.7-0.9c-0.1-0.3-0.1-0.7-0.3-1.1
		c-0.1-0.4-0.2-0.8-0.2-1c0-0.2,0-0.4,0.1-0.5c0.1-0.1,0.1-0.2,0.2-0.3h0.1c-0.2-0.7-0.3-1.8-0.4-3.3c-0.1-1.4,0.4-2.6,1.5-3.7
		c1-1.1,2.5-1.6,4.3-1.6c1.8,0,3.3,0.5,4.3,1.6c1,1.1,1.5,2.3,1.5,3.7l-0.4,3.3c0.3,0.1,0.4,0.3,0.4,0.8c0,0.1-0.2,0.8-0.5,2.2
		c-0.1,0.3-0.1,0.5-0.2,0.6C34.1,28.9,34,29,33.9,29h-0.2c-0.2,1.2-0.4,2-0.5,2.4l-0.7,1.4c-0.1,1.9-0.1,3,0.1,3.2
		c0.2,0.2,0.7,0.4,1.6,0.7c0.2,0.1,0.7,0.1,1.5,0.3c0.6,0.1,1.2,0.3,1.7,0.4c2.8,1,4.1,2.4,4.1,4.1H29z"/>
	<path fill="#FFFFFF" d="M39.1,39.6c-0.5-0.3-1.2-0.7-2.1-1c-0.6-0.2-1.3-0.3-2-0.4c-0.2,0-0.3,0-0.4,0c-0.1,0-0.3-0.1-0.4-0.1
		C34,38,33.9,38,33.8,38c-1.2-0.4-2-0.8-2.3-1.2c-0.3-0.4-0.5-1.2-0.5-2.5l0.1-1.6v-0.3l0.2-0.3l0.2-0.2c0.1-0.2,0.2-0.3,0.3-0.5
		c0.1-0.2,0.1-0.3,0.2-0.5c0.2-0.5,0.4-1.2,0.5-2.2l0.1-0.3c0.1-0.2,0.2-0.3,0.4-0.4s0.3-0.2,0.3-0.3l0.2-0.4c0.1-0.3,0.2-0.7,0.2-1
		c0.1-0.3,0-0.6-0.2-0.9c-0.2-0.3-0.2-0.4-0.2-0.5l0.1-0.4v-0.2c0.1-0.1,0.1-0.2,0.1-0.4c0-0.2,0.1-0.4,0.1-0.6s0.1-0.5,0.1-0.8
		s0-0.7,0-1c0-1.1-0.4-2-1.1-2.7c-0.8-0.8-2-1.2-3.4-1.2c-1.5,0-2.7,0.4-3.5,1.2c-0.7,0.7-1,1.6-1,2.7c0,0.4,0,0.7,0,1
		s0.1,0.6,0.1,0.8s0.1,0.4,0.1,0.6c0,0.2,0.1,0.3,0.1,0.4v0.2c0.1,0.2,0.1,0.3,0,0.5l-0.2,0.4c-0.2,0.2-0.2,0.5-0.2,0.9
		c0.1,0.4,0.1,0.7,0.2,1l0.2,0.4c0,0.1,0.1,0.2,0.3,0.3s0.3,0.2,0.4,0.4l0.1,0.3c0.1,0.9,0.3,1.7,0.5,2.2c0.2,0.6,0.4,1,0.6,1.2
		l0.2,0.3v0.3c0.1,0.5,0.1,1,0.1,1.6c0,1.2-0.2,2.1-0.5,2.5c-0.3,0.4-1.1,0.8-2.3,1.2c-0.5,0.1-0.9,0.2-1.2,0.2
		c-0.6,0.1-1.3,0.2-2,0.4c-0.9,0.4-1.6,0.7-2.1,1c-0.2,0.1-0.4,0.3-0.6,0.6H29h10.7C39.5,39.9,39.3,39.7,39.1,39.6z"/>
</g>
</svg>
