<?xml version="1.0" encoding="utf-8"?>
<!-- Generator: Adobe Illustrator 18.0.0, SVG Export Plug-In . SVG Version: 6.00 Build 0)  -->
<!DOCTYPE svg PUBLIC "-//W3C//DTD SVG 1.1//EN" "http://www.w3.org/Graphics/SVG/1.1/DTD/svg11.dtd">
<svg version="1.1" id="Ebene_1" xmlns="http://www.w3.org/2000/svg" xmlns:xlink="http://www.w3.org/1999/xlink" x="0px" y="0px"
	 viewBox="0 0 58 58" enable-background="new 0 0 58 58" xml:space="preserve">
<rect fill="#FFFFFF" width="58" height="58"/>
<g>
	<path fill="#FFCC00" d="M32.5,41.9h-7.1c-0.5,0-0.9,0.4-0.9,0.9v0.1c0,0.5,0.4,0.9,0.9,0.9h7.1c0.5,0,0.9-0.4,0.9-0.9v-0.1
		C33.4,42.3,33,41.9,32.5,41.9z"/>
	<path fill="#FFCC00" d="M31.7,44.6h-5.4c-0.5,0-0.9,0.4-0.9,0.9v0.1c0,0.5,0.4,0.9,0.9,0.9h5.4c0.5,0,0.9-0.4,0.9-0.9v-0.1
		C32.6,45,32.2,44.6,31.7,44.6z"/>
	<path fill="#FFCC00" d="M30.8,47.2h-3.6c-0.5,0-0.9,0.4-0.9,0.9s0.4,0.9,0.9,0.9h3.6c0.5,0,0.9-0.4,0.9-0.9S31.3,47.2,30.8,47.2z"
		/>
	<path fill="#FFCC00" d="M29,9c-7.1,0-12.8,5.7-12.8,12.8c0,4.3,2.1,8,5.3,10.4l0,0c1.1,0.7,3.2,3.8,3.6,7.5
		c0.1,0.6,0.6,1.5,1.3,1.5c0.7,0,5.1,0,5.1,0c0.8,0,1.3-0.6,1.4-1.3c0.5-3.6,1.3-5.4,4.1-8c0.2-0.1,0.4-0.3,0.5-0.5
		c0.1-0.1,0.2-0.1,0.2-0.2l0,0c2.5-2.3,4.1-5.6,4.1-9.3C41.8,14.7,36.1,9,29,9z M34.7,24.9c0,0.5-0.4,0.8-0.8,0.8h-4v11.8
		c0,0.5-0.4,0.9-0.9,0.9s-0.9-0.4-0.9-0.9V25.8h-3.9c-0.5,0-0.8-0.4-0.8-0.8l0,0c0-0.5,0.4-0.8,0.8-0.8h9.7
		C34.3,24,34.7,24.4,34.7,24.9L34.7,24.9z"/>
</g>
</svg>
