<?xml version="1.0" encoding="utf-8"?>
<!-- Generator: Adobe Illustrator 18.0.0, SVG Export Plug-In . SVG Version: 6.00 Build 0)  -->
<!DOCTYPE svg PUBLIC "-//W3C//DTD SVG 1.1//EN" "http://www.w3.org/Graphics/SVG/1.1/DTD/svg11.dtd">
<svg version="1.1" id="Ebene_1" xmlns="http://www.w3.org/2000/svg" xmlns:xlink="http://www.w3.org/1999/xlink" x="0px" y="0px"
	 viewBox="0 0 58 58" enable-background="new 0 0 58 58" xml:space="preserve">
<g>
	<path fill="#FFFFFF" d="M42.3,39.9c-1.1,0-1.8,0.4-1.8,0.8s0.8,0.8,1.8,0.8c1.1,0,1.8-0.4,1.8-0.8S43.4,39.9,42.3,39.9z"/>
	<path fill="#FFFFFF" d="M0,0v58h58V0H0z M23.5,26.9V12.1h10.3v14.8h4.9L28.5,40.7L18.2,26.9H23.5z M47.1,46.3H9.8
		c-1.1-0.1-1.1-1.3-0.7-2.1l3.4-5.9c0.4-0.7,1.1-0.9,1.7-0.9h10.7l0.5,0.7h-7.2c-0.7,0-1.1,0.1-1.2,0.5L15.2,43
		c-0.3,0.5-0.1,0.8,0.4,0.8l24.9,0.1c0.7-0.1,0.9-0.4,0.5-1.1l-2.1-4c-0.3-0.5-0.4-0.7-0.9-0.8h-6.2l0.5-0.7h10.3
		c0.5,0,0.9,0.3,1.2,0.7l3.8,6.1C48,45.3,47.8,46.1,47.1,46.3z"/>
	<polygon fill="#FFFFFF" points="36.6,27.7 33.7,27.7 32.8,27.7 32.8,26.8 32.8,13 24.5,13 24.5,26.6 24.5,27.7 23.5,27.7 
		20.2,27.7 28.5,38.9 	"/>
</g>
</svg>
