<?xml version="1.0" encoding="utf-8"?>
<!-- Generator: Adobe Illustrator 18.0.0, SVG Export Plug-In . SVG Version: 6.00 Build 0)  -->
<!DOCTYPE svg PUBLIC "-//W3C//DTD SVG 1.1//EN" "http://www.w3.org/Graphics/SVG/1.1/DTD/svg11.dtd">
<svg version="1.1" id="Ebene_1" xmlns="http://www.w3.org/2000/svg" xmlns:xlink="http://www.w3.org/1999/xlink" x="0px" y="0px"
	 viewBox="0 0 150 250" enable-background="new 0 0 150 250" xml:space="preserve">
<path fill="#FFFFFF" d="M113.6,11.2H37.5c-8.8,0-16,7.2-16,16V224c0,8.8,7.2,16,16,16h76.1c8.8,0,16-7.2,16-16V27.2
	C129.6,18.4,122.4,11.2,113.6,11.2z M75.4,20.2c1.1,0,2.1,0.9,2.1,2.1c0,1.2-0.9,2.1-2.1,2.1s-2.1-0.9-2.1-2.1
	C73.4,21.1,74.3,20.2,75.4,20.2z M65.4,30.8c0-1.1,0.9-1.9,1.9-1.9h16.1c1.1,0,1.9,0.9,1.9,1.9v0.3c0,1.1-0.9,1.9-1.9,1.9H67.3
	c-1.1,0-1.9-0.9-1.9-1.9V30.8z M75.6,233.2c-5.5,0-9.9-4.5-9.9-10c0-5.5,4.5-10,9.9-10c5.5,0,9.9,4.5,9.9,10
	C85.5,228.7,81.1,233.2,75.6,233.2z M121.5,207.2h-92V43.9h92V207.2z"/>
</svg>
